<mxfile host="app.diagrams.net" modified="2020-10-14T18:46:39.450Z" agent="5.0 (Windows NT 10.0; Win64; x64) AppleWebKit/537.36 (KHTML, like Gecko) Chrome/86.0.4240.75 Safari/537.36 Edg/86.0.622.38" etag="92WwzDFTOGhapEHAkz-q" version="13.8.0" type="github">
  <diagram name="Page-1" id="74b105a0-9070-1c63-61bc-23e55f88626e">
    <mxGraphModel dx="865" dy="423" grid="1" gridSize="10" guides="1" tooltips="1" connect="1" arrows="1" fold="1" page="1" pageScale="1.5" pageWidth="1169" pageHeight="826" background="none" math="0" shadow="0">
      <root>
        <mxCell id="0" style=";html=1;" />
        <mxCell id="1" style=";html=1;" parent="0" />
        <mxCell id="Wlu_TrrvpK5Pyz7r_KfD-27" style="edgeStyle=orthogonalEdgeStyle;rounded=0;orthogonalLoop=1;jettySize=auto;html=1;" edge="1" parent="1" source="Wlu_TrrvpK5Pyz7r_KfD-1">
          <mxGeometry relative="1" as="geometry">
            <mxPoint x="660" y="1502" as="targetPoint" />
            <Array as="points">
              <mxPoint x="670" y="1502" />
              <mxPoint x="670" y="1502" />
            </Array>
          </mxGeometry>
        </mxCell>
        <mxCell id="Wlu_TrrvpK5Pyz7r_KfD-1" value="" style="shadow=0;dashed=0;html=1;strokeColor=none;fillColor=#4495D1;labelPosition=center;verticalLabelPosition=bottom;verticalAlign=top;align=center;outlineConnect=0;shape=mxgraph.veeam.data_file;" vertex="1" parent="1">
          <mxGeometry x="900" y="1446.62" width="80" height="110" as="geometry" />
        </mxCell>
        <mxCell id="Wlu_TrrvpK5Pyz7r_KfD-2" value="" style="verticalLabelPosition=bottom;html=1;verticalAlign=top;align=center;strokeColor=none;fillColor=#00BEF2;shape=mxgraph.azure.file_2;pointerEvents=1;" vertex="1" parent="1">
          <mxGeometry x="330" y="620" width="47.5" height="50" as="geometry" />
        </mxCell>
        <mxCell id="Wlu_TrrvpK5Pyz7r_KfD-3" value="" style="aspect=fixed;pointerEvents=1;shadow=0;dashed=0;html=1;strokeColor=none;labelPosition=center;verticalLabelPosition=bottom;verticalAlign=top;align=center;fillColor=#00188D;shape=mxgraph.azure.script_file" vertex="1" parent="1">
          <mxGeometry x="250" y="770" width="47" height="50" as="geometry" />
        </mxCell>
        <mxCell id="Wlu_TrrvpK5Pyz7r_KfD-4" value="" style="pointerEvents=1;shadow=0;dashed=0;html=1;strokeColor=none;fillColor=#505050;labelPosition=center;verticalLabelPosition=bottom;verticalAlign=top;outlineConnect=0;align=center;shape=mxgraph.office.servers.file_server;" vertex="1" parent="1">
          <mxGeometry x="140" y="540" width="45" height="56" as="geometry" />
        </mxCell>
        <mxCell id="Wlu_TrrvpK5Pyz7r_KfD-5" value="Cloud" style="html=1;strokeColor=none;fillColor=#0079D6;labelPosition=center;verticalLabelPosition=middle;verticalAlign=top;align=center;fontSize=12;outlineConnect=0;spacingTop=-6;fontColor=#FFFFFF;shape=mxgraph.sitemap.cloud;" vertex="1" parent="1">
          <mxGeometry x="580" y="380" width="120" height="70" as="geometry" />
        </mxCell>
        <mxCell id="Wlu_TrrvpK5Pyz7r_KfD-6" value="" style="image;html=1;image=img/lib/clip_art/networking/Cloud_Computer_128x128.png" vertex="1" parent="1">
          <mxGeometry x="1085" y="2090" width="180" height="110" as="geometry" />
        </mxCell>
        <mxCell id="Wlu_TrrvpK5Pyz7r_KfD-7" value="" style="shape=datastore;whiteSpace=wrap;html=1;" vertex="1" parent="1">
          <mxGeometry x="220" y="290" width="60" height="60" as="geometry" />
        </mxCell>
        <mxCell id="Wlu_TrrvpK5Pyz7r_KfD-8" value="" style="shape=image;html=1;verticalAlign=top;verticalLabelPosition=bottom;labelBackgroundColor=#ffffff;imageAspect=0;aspect=fixed;image=https://cdn1.iconfinder.com/data/icons/cloud-72/64/big-data-analysis-input-server-run-cloud-128.png" vertex="1" parent="1">
          <mxGeometry x="1150" y="480" width="128" height="128" as="geometry" />
        </mxCell>
        <mxCell id="Wlu_TrrvpK5Pyz7r_KfD-9" value="" style="aspect=fixed;html=1;points=[];align=center;image;fontSize=12;image=img/lib/azure2/app_services/API_Management_Services.svg;" vertex="1" parent="1">
          <mxGeometry x="560" y="680" width="65" height="60" as="geometry" />
        </mxCell>
        <mxCell id="Wlu_TrrvpK5Pyz7r_KfD-10" value="" style="aspect=fixed;html=1;points=[];align=center;image;fontSize=12;image=img/lib/azure2/containers/App_Services.svg;" vertex="1" parent="1">
          <mxGeometry x="697" y="790" width="64" height="64" as="geometry" />
        </mxCell>
        <mxCell id="Wlu_TrrvpK5Pyz7r_KfD-19" style="edgeStyle=orthogonalEdgeStyle;rounded=0;orthogonalLoop=1;jettySize=auto;html=1;" edge="1" parent="1" source="Wlu_TrrvpK5Pyz7r_KfD-11">
          <mxGeometry relative="1" as="geometry">
            <mxPoint x="540" y="1501.6200000000003" as="targetPoint" />
          </mxGeometry>
        </mxCell>
        <mxCell id="Wlu_TrrvpK5Pyz7r_KfD-11" value="" style="aspect=fixed;perimeter=ellipsePerimeter;html=1;align=center;shadow=0;dashed=0;spacingTop=3;image;image=img/lib/active_directory/user.svg;" vertex="1" parent="1">
          <mxGeometry x="260.46" y="1394.77" width="79.07" height="213.7" as="geometry" />
        </mxCell>
        <mxCell id="Wlu_TrrvpK5Pyz7r_KfD-12" value="" style="points=[];aspect=fixed;html=1;align=center;shadow=0;dashed=0;image;image=img/lib/allied_telesis/computer_and_terminals/Personal_Computer.svg;" vertex="1" parent="1">
          <mxGeometry x="860" y="410" width="45.6" height="61.800000000000004" as="geometry" />
        </mxCell>
        <mxCell id="Wlu_TrrvpK5Pyz7r_KfD-13" value="" style="points=[];aspect=fixed;html=1;align=center;shadow=0;dashed=0;image;image=img/lib/allied_telesis/computer_and_terminals/Personal_Computer.svg;" vertex="1" parent="1">
          <mxGeometry x="860" y="410" width="45.6" height="61.800000000000004" as="geometry" />
        </mxCell>
        <mxCell id="Wlu_TrrvpK5Pyz7r_KfD-61" style="edgeStyle=none;rounded=0;orthogonalLoop=1;jettySize=auto;html=1;" edge="1" parent="1" source="Wlu_TrrvpK5Pyz7r_KfD-14">
          <mxGeometry relative="1" as="geometry">
            <mxPoint x="1179" y="1790" as="targetPoint" />
          </mxGeometry>
        </mxCell>
        <mxCell id="Wlu_TrrvpK5Pyz7r_KfD-14" value="" style="points=[];aspect=fixed;html=1;align=center;shadow=0;dashed=0;image;image=img/lib/allied_telesis/computer_and_terminals/Personal_Computer.svg;" vertex="1" parent="1">
          <mxGeometry x="1140" y="1970" width="77.38" height="104.87" as="geometry" />
        </mxCell>
        <mxCell id="Wlu_TrrvpK5Pyz7r_KfD-53" style="edgeStyle=none;rounded=0;orthogonalLoop=1;jettySize=auto;html=1;" edge="1" parent="1" source="Wlu_TrrvpK5Pyz7r_KfD-16">
          <mxGeometry relative="1" as="geometry">
            <mxPoint x="784.4099999999999" y="1850" as="targetPoint" />
          </mxGeometry>
        </mxCell>
        <mxCell id="Wlu_TrrvpK5Pyz7r_KfD-56" style="edgeStyle=none;rounded=0;orthogonalLoop=1;jettySize=auto;html=1;" edge="1" parent="1" source="Wlu_TrrvpK5Pyz7r_KfD-16">
          <mxGeometry relative="1" as="geometry">
            <mxPoint x="1080" y="2070" as="targetPoint" />
          </mxGeometry>
        </mxCell>
        <mxCell id="Wlu_TrrvpK5Pyz7r_KfD-16" value="" style="aspect=fixed;html=1;points=[];align=center;image;fontSize=12;image=img/lib/azure2/management_governance/User_Privacy.svg;" vertex="1" parent="1">
          <mxGeometry x="709.12" y="1990" width="150.58" height="160" as="geometry" />
        </mxCell>
        <mxCell id="Wlu_TrrvpK5Pyz7r_KfD-17" value="" style="dashed=0;outlineConnect=0;html=1;align=center;labelPosition=center;verticalLabelPosition=bottom;verticalAlign=top;shape=mxgraph.webicons.apple;fillColor=#807E7E;gradientColor=#1B1C1C" vertex="1" parent="1">
          <mxGeometry x="550" y="1390" width="102.4" height="102.4" as="geometry" />
        </mxCell>
        <mxCell id="Wlu_TrrvpK5Pyz7r_KfD-18" value="" style="dashed=0;outlineConnect=0;html=1;align=center;labelPosition=center;verticalLabelPosition=bottom;verticalAlign=top;shape=mxgraph.weblogos.android;fillColor=#A4CA39;strokeColor=none" vertex="1" parent="1">
          <mxGeometry x="552.4" y="1520" width="100" height="110" as="geometry" />
        </mxCell>
        <mxCell id="Wlu_TrrvpK5Pyz7r_KfD-20" value="使用APP" style="text;html=1;strokeColor=#6F0000;fillColor=#a20025;align=center;verticalAlign=middle;whiteSpace=wrap;rounded=0;fontColor=#ffffff;" vertex="1" parent="1">
          <mxGeometry x="410" y="1470" width="70" height="20" as="geometry" />
        </mxCell>
        <mxCell id="Wlu_TrrvpK5Pyz7r_KfD-22" value="用户" style="text;html=1;strokeColor=#001DBC;fillColor=#0050ef;align=center;verticalAlign=middle;whiteSpace=wrap;rounded=0;fontColor=#ffffff;" vertex="1" parent="1">
          <mxGeometry x="280" y="1630" width="40" height="20" as="geometry" />
        </mxCell>
        <mxCell id="Wlu_TrrvpK5Pyz7r_KfD-24" value="Android APP" style="text;html=1;strokeColor=#001DBC;fillColor=#0050ef;align=center;verticalAlign=middle;whiteSpace=wrap;rounded=0;fontColor=#ffffff;" vertex="1" parent="1">
          <mxGeometry x="562.4" y="1650" width="80" height="20" as="geometry" />
        </mxCell>
        <mxCell id="Wlu_TrrvpK5Pyz7r_KfD-25" value="Apple APP" style="text;html=1;strokeColor=#001DBC;fillColor=#0050ef;align=center;verticalAlign=middle;whiteSpace=wrap;rounded=0;fontColor=#ffffff;" vertex="1" parent="1">
          <mxGeometry x="560" y="1360" width="80" height="20" as="geometry" />
        </mxCell>
        <mxCell id="Wlu_TrrvpK5Pyz7r_KfD-26" value="tffile" style="text;html=1;fillColor=#0050ef;align=center;verticalAlign=middle;whiteSpace=wrap;rounded=0;strokeColor=#001DBC;fontColor=#ffffff;" vertex="1" parent="1">
          <mxGeometry x="905.6" y="1420" width="40" height="20" as="geometry" />
        </mxCell>
        <mxCell id="Wlu_TrrvpK5Pyz7r_KfD-28" value="添加应用" style="text;html=1;strokeColor=#6F0000;fillColor=#a20025;align=center;verticalAlign=middle;whiteSpace=wrap;rounded=0;fontColor=#ffffff;" vertex="1" parent="1">
          <mxGeometry x="750" y="1470" width="70" height="20" as="geometry" />
        </mxCell>
        <mxCell id="Wlu_TrrvpK5Pyz7r_KfD-29" value="" style="verticalLabelPosition=bottom;html=1;verticalAlign=top;align=center;strokeColor=none;fillColor=#00BEF2;shape=mxgraph.azure.code_file;pointerEvents=1;" vertex="1" parent="1">
          <mxGeometry x="350" y="770" width="47.5" height="50" as="geometry" />
        </mxCell>
        <mxCell id="Wlu_TrrvpK5Pyz7r_KfD-39" style="edgeStyle=none;rounded=0;orthogonalLoop=1;jettySize=auto;html=1;entryX=0.591;entryY=1.142;entryDx=0;entryDy=0;entryPerimeter=0;" edge="1" parent="1" source="Wlu_TrrvpK5Pyz7r_KfD-31" target="Wlu_TrrvpK5Pyz7r_KfD-24">
          <mxGeometry relative="1" as="geometry" />
        </mxCell>
        <mxCell id="Wlu_TrrvpK5Pyz7r_KfD-31" value="" style="shape=image;html=1;verticalAlign=top;verticalLabelPosition=bottom;labelBackgroundColor=#ffffff;imageAspect=0;aspect=fixed;image=https://cdn2.iconfinder.com/data/icons/oxygen/48x48/actions/media-scripts.png;strokeColor=#CC0066;" vertex="1" parent="1">
          <mxGeometry x="750" y="1787" width="50" height="50" as="geometry" />
        </mxCell>
        <mxCell id="Wlu_TrrvpK5Pyz7r_KfD-32" value="" style="verticalLabelPosition=bottom;html=1;verticalAlign=top;align=center;strokeColor=none;fillColor=#00BEF2;shape=mxgraph.azure.code_file;pointerEvents=1;" vertex="1" parent="1">
          <mxGeometry x="820" y="1787" width="47.5" height="50" as="geometry" />
        </mxCell>
        <mxCell id="Wlu_TrrvpK5Pyz7r_KfD-49" style="edgeStyle=none;rounded=0;orthogonalLoop=1;jettySize=auto;html=1;" edge="1" parent="1">
          <mxGeometry relative="1" as="geometry">
            <mxPoint x="520" y="1840" as="targetPoint" />
            <mxPoint x="680" y="1840" as="sourcePoint" />
            <Array as="points" />
          </mxGeometry>
        </mxCell>
        <mxCell id="Wlu_TrrvpK5Pyz7r_KfD-33" value="" style="html=1;dashed=0;whitespace=wrap;fillColor=#2875E2;strokeColor=#ffffff;points=[[0.005,0.63,0],[0.1,0.2,0],[0.9,0.2,0],[0.5,0,0],[0.995,0.63,0],[0.72,0.99,0],[0.5,1,0],[0.28,0.99,0]];shape=mxgraph.kubernetes.icon;prIcon=api" vertex="1" parent="1">
          <mxGeometry x="680" y="1787" width="50" height="48" as="geometry" />
        </mxCell>
        <mxCell id="Wlu_TrrvpK5Pyz7r_KfD-38" style="edgeStyle=none;rounded=0;orthogonalLoop=1;jettySize=auto;html=1;exitX=0.5;exitY=0;exitDx=0;exitDy=0;entryX=0.5;entryY=1;entryDx=0;entryDy=0;" edge="1" parent="1" source="Wlu_TrrvpK5Pyz7r_KfD-34" target="Wlu_TrrvpK5Pyz7r_KfD-24">
          <mxGeometry relative="1" as="geometry" />
        </mxCell>
        <mxCell id="Wlu_TrrvpK5Pyz7r_KfD-48" style="edgeStyle=none;rounded=0;orthogonalLoop=1;jettySize=auto;html=1;" edge="1" parent="1" source="Wlu_TrrvpK5Pyz7r_KfD-34">
          <mxGeometry relative="1" as="geometry">
            <mxPoint x="660" y="1780" as="targetPoint" />
            <Array as="points">
              <mxPoint x="660" y="1780" />
            </Array>
          </mxGeometry>
        </mxCell>
        <mxCell id="Wlu_TrrvpK5Pyz7r_KfD-34" value="" style="strokeColor=#dddddd;shadow=1;strokeWidth=1;rounded=1;absoluteArcSize=1;arcSize=2;" vertex="1" parent="1">
          <mxGeometry x="377.5" y="1750" width="130" height="60" as="geometry" />
        </mxCell>
        <mxCell id="Wlu_TrrvpK5Pyz7r_KfD-35" value="TensorFlow&lt;br&gt;&amp;nbsp; &amp;nbsp; &amp;nbsp; Lite" style="dashed=0;connectable=0;html=1;fillColor=#5184F3;strokeColor=none;shape=mxgraph.gcp2.tensorflow_logo;part=1;labelPosition=right;verticalLabelPosition=middle;align=left;verticalAlign=middle;spacingLeft=5;fontColor=#999999;fontSize=12;" vertex="1" parent="Wlu_TrrvpK5Pyz7r_KfD-34">
          <mxGeometry width="42.3" height="45" relative="1" as="geometry">
            <mxPoint x="5" y="7" as="offset" />
          </mxGeometry>
        </mxCell>
        <mxCell id="Wlu_TrrvpK5Pyz7r_KfD-37" value="Flutter framework" style="rounded=0;whiteSpace=wrap;html=1;fillColor=#d80073;strokeColor=#A50040;fontColor=#ffffff;" vertex="1" parent="1">
          <mxGeometry x="350.88" y="1819" width="82.5" height="40" as="geometry" />
        </mxCell>
        <mxCell id="Wlu_TrrvpK5Pyz7r_KfD-40" value="添加框架" style="text;html=1;strokeColor=#6F0000;fillColor=#a20025;align=center;verticalAlign=middle;whiteSpace=wrap;rounded=0;fontColor=#ffffff;" vertex="1" parent="1">
          <mxGeometry x="420" y="1700" width="70" height="20" as="geometry" />
        </mxCell>
        <mxCell id="Wlu_TrrvpK5Pyz7r_KfD-41" value="添加修改" style="text;html=1;strokeColor=#6F0000;fillColor=#a20025;align=center;verticalAlign=middle;whiteSpace=wrap;rounded=0;fontColor=#ffffff;" vertex="1" parent="1">
          <mxGeometry x="680" y="1700" width="70" height="20" as="geometry" />
        </mxCell>
        <mxCell id="Wlu_TrrvpK5Pyz7r_KfD-44" value="APi" style="text;html=1;strokeColor=#001DBC;fillColor=#0050ef;align=center;verticalAlign=middle;whiteSpace=wrap;rounded=0;fontColor=#ffffff;" vertex="1" parent="1">
          <mxGeometry x="680" y="1767" width="40" height="20" as="geometry" />
        </mxCell>
        <mxCell id="Wlu_TrrvpK5Pyz7r_KfD-45" value="接口脚本" style="text;html=1;strokeColor=#001DBC;fillColor=#0050ef;align=center;verticalAlign=middle;whiteSpace=wrap;rounded=0;fontColor=#ffffff;" vertex="1" parent="1">
          <mxGeometry x="747.5" y="1767" width="55" height="20" as="geometry" />
        </mxCell>
        <mxCell id="Wlu_TrrvpK5Pyz7r_KfD-46" value="代码" style="text;html=1;strokeColor=#001DBC;fillColor=#0050ef;align=center;verticalAlign=middle;whiteSpace=wrap;rounded=0;fontColor=#ffffff;" vertex="1" parent="1">
          <mxGeometry x="823.75" y="1767" width="40" height="20" as="geometry" />
        </mxCell>
        <mxCell id="Wlu_TrrvpK5Pyz7r_KfD-51" value="other framework" style="rounded=0;whiteSpace=wrap;html=1;fillColor=#fff2cc;strokeColor=#d6b656;" vertex="1" parent="1">
          <mxGeometry x="440" y="1819" width="80" height="40" as="geometry" />
        </mxCell>
        <mxCell id="Wlu_TrrvpK5Pyz7r_KfD-66" style="edgeStyle=orthogonalEdgeStyle;rounded=0;orthogonalLoop=1;jettySize=auto;html=1;" edge="1" parent="1" source="Wlu_TrrvpK5Pyz7r_KfD-54" target="Wlu_TrrvpK5Pyz7r_KfD-1">
          <mxGeometry relative="1" as="geometry">
            <Array as="points">
              <mxPoint x="1175" y="1502" />
            </Array>
          </mxGeometry>
        </mxCell>
        <object c4Name="MMdnn" c4Type="Software System" c4Description="转换各种深度模型pb文件成IR文件" label="&lt;b&gt;%c4Name%&lt;/b&gt;&lt;div&gt;[%c4Type%]&lt;/div&gt;&lt;br&gt;&lt;div&gt;%c4Description%&lt;/div&gt;" placeholders="1" id="Wlu_TrrvpK5Pyz7r_KfD-54">
          <mxCell style="rounded=1;whiteSpace=wrap;html=1;labelBackgroundColor=none;fillColor=#999999;fontColor=#ffffff;align=center;arcSize=10;strokeColor=#8A8A8A;metaEdit=1;metaData={&quot;c4Type&quot;:{&quot;editable&quot;:false}};points=[[0.25,0,0],[0.5,0,0],[0.75,0,0],[1,0.25,0],[1,0.5,0],[1,0.75,0],[0.75,1,0],[0.5,1,0],[0.25,1,0],[0,0.75,0],[0,0.5,0],[0,0.25,0]];" vertex="1" parent="1">
            <mxGeometry x="1095" y="1670" width="160" height="110.00000000000001" as="geometry" />
          </mxCell>
        </object>
        <mxCell id="Wlu_TrrvpK5Pyz7r_KfD-55" value="开发者" style="text;html=1;strokeColor=#001DBC;fillColor=#0050ef;align=center;verticalAlign=middle;whiteSpace=wrap;rounded=0;fontColor=#ffffff;" vertex="1" parent="1">
          <mxGeometry x="756.91" y="2150" width="55" height="20" as="geometry" />
        </mxCell>
        <mxCell id="Wlu_TrrvpK5Pyz7r_KfD-57" value="本地电脑" style="text;html=1;strokeColor=#001DBC;fillColor=#0050ef;align=center;verticalAlign=middle;whiteSpace=wrap;rounded=0;fontColor=#ffffff;" vertex="1" parent="1">
          <mxGeometry x="1278" y="2030" width="55" height="20" as="geometry" />
        </mxCell>
        <mxCell id="Wlu_TrrvpK5Pyz7r_KfD-58" value="云服务器" style="text;html=1;strokeColor=#001DBC;fillColor=#0050ef;align=center;verticalAlign=middle;whiteSpace=wrap;rounded=0;fontColor=#ffffff;" vertex="1" parent="1">
          <mxGeometry x="1278" y="2135" width="55" height="20" as="geometry" />
        </mxCell>
        <mxCell id="Wlu_TrrvpK5Pyz7r_KfD-59" value="使用数据集" style="text;html=1;strokeColor=#6F0000;fillColor=#a20025;align=center;verticalAlign=middle;whiteSpace=wrap;rounded=0;fontColor=#ffffff;" vertex="1" parent="1">
          <mxGeometry x="940" y="2040" width="70" height="20" as="geometry" />
        </mxCell>
        <mxCell id="Wlu_TrrvpK5Pyz7r_KfD-60" value="coco&amp;nbsp; dataset&lt;br&gt;dota&amp;nbsp; dataset" style="html=1;dashed=0;whitespace=wrap;strokeColor=#A50040;fillColor=#d80073;fontColor=#ffffff;" vertex="1" parent="1">
          <mxGeometry x="930" y="2085" width="100" height="45" as="geometry" />
        </mxCell>
        <mxCell id="Wlu_TrrvpK5Pyz7r_KfD-62" value="" style="aspect=fixed;pointerEvents=1;shadow=0;dashed=0;html=1;strokeColor=none;labelPosition=center;verticalLabelPosition=bottom;verticalAlign=top;align=center;fillColor=#00188D;shape=mxgraph.azure.file" vertex="1" parent="1">
          <mxGeometry x="1200" y="1859" width="47" height="50" as="geometry" />
        </mxCell>
        <mxCell id="Wlu_TrrvpK5Pyz7r_KfD-63" value=".pb file" style="text;html=1;strokeColor=#001DBC;fillColor=#0050ef;align=center;verticalAlign=middle;whiteSpace=wrap;rounded=0;fontColor=#ffffff;" vertex="1" parent="1">
          <mxGeometry x="1200" y="1829" width="40" height="20" as="geometry" />
        </mxCell>
        <mxCell id="Wlu_TrrvpK5Pyz7r_KfD-64" value="" style="aspect=fixed;pointerEvents=1;shadow=0;dashed=0;html=1;strokeColor=none;labelPosition=center;verticalLabelPosition=bottom;verticalAlign=top;align=center;fillColor=#00188D;shape=mxgraph.azure.file" vertex="1" parent="1">
          <mxGeometry x="1103" y="1859" width="47" height="50" as="geometry" />
        </mxCell>
        <mxCell id="Wlu_TrrvpK5Pyz7r_KfD-65" value=".weights file" style="text;html=1;strokeColor=#001DBC;fillColor=#0050ef;align=center;verticalAlign=middle;whiteSpace=wrap;rounded=0;fontColor=#ffffff;" vertex="1" parent="1">
          <mxGeometry x="1089.75" y="1829" width="73.5" height="20" as="geometry" />
        </mxCell>
        <mxCell id="Wlu_TrrvpK5Pyz7r_KfD-67" value="转换" style="text;html=1;strokeColor=#6F0000;fillColor=#a20025;align=center;verticalAlign=middle;whiteSpace=wrap;rounded=0;fontColor=#ffffff;" vertex="1" parent="1">
          <mxGeometry x="1185" y="1580" width="70" height="20" as="geometry" />
        </mxCell>
        <mxCell id="Wlu_TrrvpK5Pyz7r_KfD-69" value="" style="endArrow=classic;startArrow=classic;html=1;entryX=0.5;entryY=1;entryDx=0;entryDy=0;" edge="1" parent="1" target="Wlu_TrrvpK5Pyz7r_KfD-22">
          <mxGeometry width="50" height="50" relative="1" as="geometry">
            <mxPoint x="700" y="2080" as="sourcePoint" />
            <mxPoint x="280" y="1800" as="targetPoint" />
            <Array as="points">
              <mxPoint x="300" y="2080" />
            </Array>
          </mxGeometry>
        </mxCell>
        <mxCell id="Wlu_TrrvpK5Pyz7r_KfD-70" value="反馈与改进" style="text;html=1;strokeColor=#6F0000;fillColor=#a20025;align=center;verticalAlign=middle;whiteSpace=wrap;rounded=0;fontColor=#ffffff;" vertex="1" parent="1">
          <mxGeometry x="433.38" y="2050" width="70" height="20" as="geometry" />
        </mxCell>
      </root>
    </mxGraphModel>
  </diagram>
</mxfile>
